solid ASCII
  facet normal 1.890147e-001 -1.890147e-001 9.636114e-001
    outer loop
      vertex   -3.746730e+001 7.975000e+001 8.660254e-001
      vertex   -3.790031e+001 8.000000e+001 1.000000e+000
      vertex   -3.765031e+001 7.956699e+001 8.660254e-001
    endloop
  endfacet
  facet normal 6.918418e-002 -2.581989e-001 9.636114e-001
    outer loop
      vertex   -3.765031e+001 7.956699e+001 8.660254e-001
      vertex   -3.790031e+001 8.000000e+001 1.000000e+000
      vertex   -3.790031e+001 7.950000e+001 8.660254e-001
    endloop
  endfacet
  facet normal -6.918418e-002 -2.581989e-001 9.636114e-001
    outer loop
      vertex   -3.790031e+001 7.950000e+001 8.660254e-001
      vertex   -3.790031e+001 8.000000e+001 1.000000e+000
      vertex   -3.815031e+001 7.956699e+001 8.660254e-001
    endloop
  endfacet
  facet normal -1.890147e-001 -1.890147e-001 9.636114e-001
    outer loop
      vertex   -3.815031e+001 7.956699e+001 8.660254e-001
      vertex   -3.790031e+001 8.000000e+001 1.000000e+000
      vertex   -3.833332e+001 7.975000e+001 8.660254e-001
    endloop
  endfacet
  facet normal -2.581989e-001 -6.918418e-002 9.636114e-001
    outer loop
      vertex   -3.833332e+001 7.975000e+001 8.660254e-001
      vertex   -3.790031e+001 8.000000e+001 1.000000e+000
      vertex   -3.840031e+001 8.000000e+001 8.660254e-001
    endloop
  endfacet
  facet normal -1.890147e-001 -1.890147e-001 -9.636114e-001
    outer loop
      vertex   -3.833332e+001 7.975000e+001 -8.660254e-001
      vertex   -3.790031e+001 8.000000e+001 -1.000000e+000
      vertex   -3.815031e+001 7.956699e+001 -8.660254e-001
    endloop
  endfacet
  facet normal -6.918418e-002 -2.581989e-001 -9.636114e-001
    outer loop
      vertex   -3.815031e+001 7.956699e+001 -8.660254e-001
      vertex   -3.790031e+001 8.000000e+001 -1.000000e+000
      vertex   -3.790031e+001 7.950000e+001 -8.660254e-001
    endloop
  endfacet
  facet normal 6.918418e-002 -2.581989e-001 -9.636114e-001
    outer loop
      vertex   -3.790031e+001 7.950000e+001 -8.660254e-001
      vertex   -3.790031e+001 8.000000e+001 -1.000000e+000
      vertex   -3.765031e+001 7.956699e+001 -8.660254e-001
    endloop
  endfacet
  facet normal 1.890147e-001 -1.890147e-001 -9.636114e-001
    outer loop
      vertex   -3.765031e+001 7.956699e+001 -8.660254e-001
      vertex   -3.790031e+001 8.000000e+001 -1.000000e+000
      vertex   -3.746730e+001 7.975000e+001 -8.660254e-001
    endloop
  endfacet
  facet normal 2.581989e-001 -6.918418e-002 -9.636114e-001
    outer loop
      vertex   -3.746730e+001 7.975000e+001 -8.660254e-001
      vertex   -3.790031e+001 8.000000e+001 -1.000000e+000
      vertex   -3.740031e+001 8.000000e+001 -8.660254e-001
    endloop
  endfacet
  facet normal 1.890147e-001 1.890147e-001 -9.636114e-001
    outer loop
      vertex   -3.746730e+001 8.025000e+001 -8.660254e-001
      vertex   -3.790031e+001 8.000000e+001 -1.000000e+000
      vertex   -3.765031e+001 8.043301e+001 -8.660254e-001
    endloop
  endfacet
  facet normal 6.918418e-002 2.581989e-001 -9.636114e-001
    outer loop
      vertex   -3.765031e+001 8.043301e+001 -8.660254e-001
      vertex   -3.790031e+001 8.000000e+001 -1.000000e+000
      vertex   -3.790031e+001 8.050000e+001 -8.660254e-001
    endloop
  endfacet
  facet normal -6.918418e-002 2.581989e-001 -9.636114e-001
    outer loop
      vertex   -3.790031e+001 8.050000e+001 -8.660254e-001
      vertex   -3.790031e+001 8.000000e+001 -1.000000e+000
      vertex   -3.815031e+001 8.043301e+001 -8.660254e-001
    endloop
  endfacet
  facet normal -1.890147e-001 1.890147e-001 -9.636114e-001
    outer loop
      vertex   -3.815031e+001 8.043301e+001 -8.660254e-001
      vertex   -3.790031e+001 8.000000e+001 -1.000000e+000
      vertex   -3.833332e+001 8.025000e+001 -8.660254e-001
    endloop
  endfacet
  facet normal -2.581989e-001 6.918418e-002 -9.636114e-001
    outer loop
      vertex   -3.833332e+001 8.025000e+001 -8.660254e-001
      vertex   -3.790031e+001 8.000000e+001 -1.000000e+000
      vertex   -3.840031e+001 8.000000e+001 -8.660254e-001
    endloop
  endfacet
  facet normal -1.890147e-001 1.890147e-001 9.636114e-001
    outer loop
      vertex   -3.833332e+001 8.025000e+001 8.660254e-001
      vertex   -3.790031e+001 8.000000e+001 1.000000e+000
      vertex   -3.815031e+001 8.043301e+001 8.660254e-001
    endloop
  endfacet
  facet normal -6.918418e-002 2.581989e-001 9.636114e-001
    outer loop
      vertex   -3.815031e+001 8.043301e+001 8.660254e-001
      vertex   -3.790031e+001 8.000000e+001 1.000000e+000
      vertex   -3.790031e+001 8.050000e+001 8.660254e-001
    endloop
  endfacet
  facet normal 6.918418e-002 2.581989e-001 9.636114e-001
    outer loop
      vertex   -3.790031e+001 8.050000e+001 8.660254e-001
      vertex   -3.790031e+001 8.000000e+001 1.000000e+000
      vertex   -3.765031e+001 8.043301e+001 8.660254e-001
    endloop
  endfacet
  facet normal 1.890147e-001 1.890147e-001 9.636114e-001
    outer loop
      vertex   -3.765031e+001 8.043301e+001 8.660254e-001
      vertex   -3.790031e+001 8.000000e+001 1.000000e+000
      vertex   -3.746730e+001 8.025000e+001 8.660254e-001
    endloop
  endfacet
  facet normal 2.581989e-001 6.918418e-002 9.636114e-001
    outer loop
      vertex   -3.746730e+001 8.025000e+001 8.660254e-001
      vertex   -3.790031e+001 8.000000e+001 1.000000e+000
      vertex   -3.740031e+001 8.000000e+001 8.660254e-001
    endloop
  endfacet
  facet normal 6.947466e-001 -1.861568e-001 -6.947466e-001
    outer loop
      vertex   -3.740031e+001 8.000000e+001 -8.660254e-001
      vertex   -3.703429e+001 8.000000e+001 -5.000000e-001
      vertex   -3.746730e+001 7.975000e+001 -8.660254e-001
    endloop
  endfacet
  facet normal 6.947466e-001 -1.861568e-001 -6.947466e-001
    outer loop
      vertex   -3.746730e+001 7.975000e+001 -8.660254e-001
      vertex   -3.703429e+001 8.000000e+001 -5.000000e-001
      vertex   -3.715031e+001 7.956699e+001 -5.000000e-001
    endloop
  endfacet
  facet normal 5.085898e-001 -5.085898e-001 -6.947466e-001
    outer loop
      vertex   -3.746730e+001 7.975000e+001 -8.660254e-001
      vertex   -3.715031e+001 7.956699e+001 -5.000000e-001
      vertex   -3.765031e+001 7.956699e+001 -8.660254e-001
    endloop
  endfacet
  facet normal 5.085898e-001 -5.085898e-001 -6.947466e-001
    outer loop
      vertex   -3.765031e+001 7.956699e+001 -8.660254e-001
      vertex   -3.715031e+001 7.956699e+001 -5.000000e-001
      vertex   -3.746730e+001 7.925000e+001 -5.000000e-001
    endloop
  endfacet
  facet normal 1.861568e-001 -6.947466e-001 -6.947466e-001
    outer loop
      vertex   -3.765031e+001 7.956699e+001 -8.660254e-001
      vertex   -3.746730e+001 7.925000e+001 -5.000000e-001
      vertex   -3.790031e+001 7.950000e+001 -8.660254e-001
    endloop
  endfacet
  facet normal 1.861568e-001 -6.947466e-001 -6.947466e-001
    outer loop
      vertex   -3.790031e+001 7.950000e+001 -8.660254e-001
      vertex   -3.746730e+001 7.925000e+001 -5.000000e-001
      vertex   -3.790031e+001 7.913397e+001 -5.000000e-001
    endloop
  endfacet
  facet normal -1.861568e-001 -6.947466e-001 -6.947466e-001
    outer loop
      vertex   -3.790031e+001 7.950000e+001 -8.660254e-001
      vertex   -3.790031e+001 7.913397e+001 -5.000000e-001
      vertex   -3.815031e+001 7.956699e+001 -8.660254e-001
    endloop
  endfacet
  facet normal -1.861568e-001 -6.947466e-001 -6.947466e-001
    outer loop
      vertex   -3.815031e+001 7.956699e+001 -8.660254e-001
      vertex   -3.790031e+001 7.913397e+001 -5.000000e-001
      vertex   -3.833332e+001 7.925000e+001 -5.000000e-001
    endloop
  endfacet
  facet normal -5.085898e-001 -5.085898e-001 -6.947466e-001
    outer loop
      vertex   -3.815031e+001 7.956699e+001 -8.660254e-001
      vertex   -3.833332e+001 7.925000e+001 -5.000000e-001
      vertex   -3.833332e+001 7.975000e+001 -8.660254e-001
    endloop
  endfacet
  facet normal -5.085898e-001 -5.085898e-001 -6.947466e-001
    outer loop
      vertex   -3.833332e+001 7.975000e+001 -8.660254e-001
      vertex   -3.833332e+001 7.925000e+001 -5.000000e-001
      vertex   -3.865031e+001 7.956699e+001 -5.000000e-001
    endloop
  endfacet
  facet normal -6.947466e-001 -1.861568e-001 -6.947466e-001
    outer loop
      vertex   -3.833332e+001 7.975000e+001 -8.660254e-001
      vertex   -3.865031e+001 7.956699e+001 -5.000000e-001
      vertex   -3.840031e+001 8.000000e+001 -8.660254e-001
    endloop
  endfacet
  facet normal -6.947466e-001 -1.861568e-001 -6.947466e-001
    outer loop
      vertex   -3.840031e+001 8.000000e+001 -8.660254e-001
      vertex   -3.865031e+001 7.956699e+001 -5.000000e-001
      vertex   -3.876634e+001 8.000000e+001 -5.000000e-001
    endloop
  endfacet
  facet normal -6.947466e-001 1.861568e-001 -6.947466e-001
    outer loop
      vertex   -3.840031e+001 8.000000e+001 -8.660254e-001
      vertex   -3.876634e+001 8.000000e+001 -5.000000e-001
      vertex   -3.833332e+001 8.025000e+001 -8.660254e-001
    endloop
  endfacet
  facet normal -6.947466e-001 1.861568e-001 -6.947466e-001
    outer loop
      vertex   -3.833332e+001 8.025000e+001 -8.660254e-001
      vertex   -3.876634e+001 8.000000e+001 -5.000000e-001
      vertex   -3.865031e+001 8.043301e+001 -5.000000e-001
    endloop
  endfacet
  facet normal -5.085898e-001 5.085898e-001 -6.947466e-001
    outer loop
      vertex   -3.833332e+001 8.025000e+001 -8.660254e-001
      vertex   -3.865031e+001 8.043301e+001 -5.000000e-001
      vertex   -3.815031e+001 8.043301e+001 -8.660254e-001
    endloop
  endfacet
  facet normal -5.085898e-001 5.085898e-001 -6.947466e-001
    outer loop
      vertex   -3.815031e+001 8.043301e+001 -8.660254e-001
      vertex   -3.865031e+001 8.043301e+001 -5.000000e-001
      vertex   -3.833332e+001 8.075000e+001 -5.000000e-001
    endloop
  endfacet
  facet normal -1.861568e-001 6.947466e-001 -6.947466e-001
    outer loop
      vertex   -3.815031e+001 8.043301e+001 -8.660254e-001
      vertex   -3.833332e+001 8.075000e+001 -5.000000e-001
      vertex   -3.790031e+001 8.050000e+001 -8.660254e-001
    endloop
  endfacet
  facet normal -1.861568e-001 6.947466e-001 -6.947466e-001
    outer loop
      vertex   -3.790031e+001 8.050000e+001 -8.660254e-001
      vertex   -3.833332e+001 8.075000e+001 -5.000000e-001
      vertex   -3.790031e+001 8.086603e+001 -5.000000e-001
    endloop
  endfacet
  facet normal 1.861568e-001 6.947466e-001 -6.947466e-001
    outer loop
      vertex   -3.790031e+001 8.050000e+001 -8.660254e-001
      vertex   -3.790031e+001 8.086603e+001 -5.000000e-001
      vertex   -3.765031e+001 8.043301e+001 -8.660254e-001
    endloop
  endfacet
  facet normal 1.861568e-001 6.947466e-001 -6.947466e-001
    outer loop
      vertex   -3.765031e+001 8.043301e+001 -8.660254e-001
      vertex   -3.790031e+001 8.086603e+001 -5.000000e-001
      vertex   -3.746730e+001 8.075000e+001 -5.000000e-001
    endloop
  endfacet
  facet normal 5.085898e-001 5.085898e-001 -6.947466e-001
    outer loop
      vertex   -3.765031e+001 8.043301e+001 -8.660254e-001
      vertex   -3.746730e+001 8.075000e+001 -5.000000e-001
      vertex   -3.746730e+001 8.025000e+001 -8.660254e-001
    endloop
  endfacet
  facet normal 5.085898e-001 5.085898e-001 -6.947466e-001
    outer loop
      vertex   -3.746730e+001 8.025000e+001 -8.660254e-001
      vertex   -3.746730e+001 8.075000e+001 -5.000000e-001
      vertex   -3.715031e+001 8.043301e+001 -5.000000e-001
    endloop
  endfacet
  facet normal 6.947466e-001 1.861568e-001 -6.947466e-001
    outer loop
      vertex   -3.746730e+001 8.025000e+001 -8.660254e-001
      vertex   -3.715031e+001 8.043301e+001 -5.000000e-001
      vertex   -3.740031e+001 8.000000e+001 -8.660254e-001
    endloop
  endfacet
  facet normal 6.947466e-001 1.861568e-001 -6.947466e-001
    outer loop
      vertex   -3.740031e+001 8.000000e+001 -8.660254e-001
      vertex   -3.715031e+001 8.043301e+001 -5.000000e-001
      vertex   -3.703429e+001 8.000000e+001 -5.000000e-001
    endloop
  endfacet
  facet normal 2.581989e-001 6.918418e-002 -9.636114e-001
    outer loop
      vertex   -3.740031e+001 8.000000e+001 -8.660254e-001
      vertex   -3.790031e+001 8.000000e+001 -1.000000e+000
      vertex   -3.746730e+001 8.025000e+001 -8.660254e-001
    endloop
  endfacet
  facet normal 9.351131e-001 -2.505628e-001 -2.505628e-001
    outer loop
      vertex   -3.703429e+001 8.000000e+001 -5.000000e-001
      vertex   -3.690031e+001 8.000000e+001 7.105427e-013
      vertex   -3.715031e+001 7.956699e+001 -5.000000e-001
    endloop
  endfacet
  facet normal 9.351131e-001 -2.505628e-001 -2.505628e-001
    outer loop
      vertex   -3.715031e+001 7.956699e+001 -5.000000e-001
      vertex   -3.690031e+001 8.000000e+001 7.105427e-013
      vertex   -3.703429e+001 7.950000e+001 7.105427e-013
    endloop
  endfacet
  facet normal 6.845503e-001 -6.845503e-001 -2.505628e-001
    outer loop
      vertex   -3.715031e+001 7.956699e+001 -5.000000e-001
      vertex   -3.703429e+001 7.950000e+001 7.105427e-013
      vertex   -3.746730e+001 7.925000e+001 -5.000000e-001
    endloop
  endfacet
  facet normal 6.845503e-001 -6.845503e-001 -2.505628e-001
    outer loop
      vertex   -3.746730e+001 7.925000e+001 -5.000000e-001
      vertex   -3.703429e+001 7.950000e+001 7.105427e-013
      vertex   -3.740031e+001 7.913397e+001 7.105427e-013
    endloop
  endfacet
  facet normal 2.505628e-001 -9.351131e-001 -2.505628e-001
    outer loop
      vertex   -3.746730e+001 7.925000e+001 -5.000000e-001
      vertex   -3.740031e+001 7.913397e+001 7.105427e-013
      vertex   -3.790031e+001 7.913397e+001 -5.000000e-001
    endloop
  endfacet
  facet normal 2.505628e-001 -9.351131e-001 -2.505628e-001
    outer loop
      vertex   -3.790031e+001 7.913397e+001 -5.000000e-001
      vertex   -3.740031e+001 7.913397e+001 7.105427e-013
      vertex   -3.790031e+001 7.900000e+001 7.105427e-013
    endloop
  endfacet
  facet normal -2.505628e-001 -9.351131e-001 -2.505628e-001
    outer loop
      vertex   -3.790031e+001 7.913397e+001 -5.000000e-001
      vertex   -3.790031e+001 7.900000e+001 7.105427e-013
      vertex   -3.833332e+001 7.925000e+001 -5.000000e-001
    endloop
  endfacet
  facet normal -2.505628e-001 -9.351131e-001 -2.505628e-001
    outer loop
      vertex   -3.833332e+001 7.925000e+001 -5.000000e-001
      vertex   -3.790031e+001 7.900000e+001 7.105427e-013
      vertex   -3.840031e+001 7.913397e+001 7.105427e-013
    endloop
  endfacet
  facet normal -6.845503e-001 -6.845503e-001 -2.505628e-001
    outer loop
      vertex   -3.833332e+001 7.925000e+001 -5.000000e-001
      vertex   -3.840031e+001 7.913397e+001 7.105427e-013
      vertex   -3.865031e+001 7.956699e+001 -5.000000e-001
    endloop
  endfacet
  facet normal -6.845503e-001 -6.845503e-001 -2.505628e-001
    outer loop
      vertex   -3.865031e+001 7.956699e+001 -5.000000e-001
      vertex   -3.840031e+001 7.913397e+001 7.105427e-013
      vertex   -3.876634e+001 7.950000e+001 7.105427e-013
    endloop
  endfacet
  facet normal -9.351131e-001 -2.505628e-001 -2.505628e-001
    outer loop
      vertex   -3.865031e+001 7.956699e+001 -5.000000e-001
      vertex   -3.876634e+001 7.950000e+001 7.105427e-013
      vertex   -3.876634e+001 8.000000e+001 -5.000000e-001
    endloop
  endfacet
  facet normal -9.351131e-001 -2.505628e-001 -2.505628e-001
    outer loop
      vertex   -3.876634e+001 8.000000e+001 -5.000000e-001
      vertex   -3.876634e+001 7.950000e+001 7.105427e-013
      vertex   -3.890031e+001 8.000000e+001 7.105427e-013
    endloop
  endfacet
  facet normal -9.351131e-001 2.505628e-001 -2.505628e-001
    outer loop
      vertex   -3.876634e+001 8.000000e+001 -5.000000e-001
      vertex   -3.890031e+001 8.000000e+001 7.105427e-013
      vertex   -3.865031e+001 8.043301e+001 -5.000000e-001
    endloop
  endfacet
  facet normal -9.351131e-001 2.505628e-001 -2.505628e-001
    outer loop
      vertex   -3.865031e+001 8.043301e+001 -5.000000e-001
      vertex   -3.890031e+001 8.000000e+001 7.105427e-013
      vertex   -3.876634e+001 8.050000e+001 7.105427e-013
    endloop
  endfacet
  facet normal -6.845503e-001 6.845503e-001 -2.505628e-001
    outer loop
      vertex   -3.865031e+001 8.043301e+001 -5.000000e-001
      vertex   -3.876634e+001 8.050000e+001 7.105427e-013
      vertex   -3.833332e+001 8.075000e+001 -5.000000e-001
    endloop
  endfacet
  facet normal -6.845503e-001 6.845503e-001 -2.505628e-001
    outer loop
      vertex   -3.833332e+001 8.075000e+001 -5.000000e-001
      vertex   -3.876634e+001 8.050000e+001 7.105427e-013
      vertex   -3.840031e+001 8.086603e+001 7.105427e-013
    endloop
  endfacet
  facet normal -2.505628e-001 9.351131e-001 -2.505628e-001
    outer loop
      vertex   -3.833332e+001 8.075000e+001 -5.000000e-001
      vertex   -3.840031e+001 8.086603e+001 7.105427e-013
      vertex   -3.790031e+001 8.086603e+001 -5.000000e-001
    endloop
  endfacet
  facet normal -2.505628e-001 9.351131e-001 -2.505628e-001
    outer loop
      vertex   -3.790031e+001 8.086603e+001 -5.000000e-001
      vertex   -3.840031e+001 8.086603e+001 7.105427e-013
      vertex   -3.790031e+001 8.100000e+001 7.105427e-013
    endloop
  endfacet
  facet normal 2.505628e-001 9.351131e-001 -2.505628e-001
    outer loop
      vertex   -3.790031e+001 8.086603e+001 -5.000000e-001
      vertex   -3.790031e+001 8.100000e+001 7.105427e-013
      vertex   -3.746730e+001 8.075000e+001 -5.000000e-001
    endloop
  endfacet
  facet normal 2.505628e-001 9.351131e-001 -2.505628e-001
    outer loop
      vertex   -3.746730e+001 8.075000e+001 -5.000000e-001
      vertex   -3.790031e+001 8.100000e+001 7.105427e-013
      vertex   -3.740031e+001 8.086603e+001 7.105427e-013
    endloop
  endfacet
  facet normal 6.845503e-001 6.845503e-001 -2.505628e-001
    outer loop
      vertex   -3.746730e+001 8.075000e+001 -5.000000e-001
      vertex   -3.740031e+001 8.086603e+001 7.105427e-013
      vertex   -3.715031e+001 8.043301e+001 -5.000000e-001
    endloop
  endfacet
  facet normal 6.845503e-001 6.845503e-001 -2.505628e-001
    outer loop
      vertex   -3.715031e+001 8.043301e+001 -5.000000e-001
      vertex   -3.740031e+001 8.086603e+001 7.105427e-013
      vertex   -3.703429e+001 8.050000e+001 7.105427e-013
    endloop
  endfacet
  facet normal 9.351131e-001 2.505628e-001 -2.505628e-001
    outer loop
      vertex   -3.715031e+001 8.043301e+001 -5.000000e-001
      vertex   -3.703429e+001 8.050000e+001 7.105427e-013
      vertex   -3.703429e+001 8.000000e+001 -5.000000e-001
    endloop
  endfacet
  facet normal 9.351131e-001 2.505628e-001 -2.505628e-001
    outer loop
      vertex   -3.703429e+001 8.000000e+001 -5.000000e-001
      vertex   -3.703429e+001 8.050000e+001 7.105427e-013
      vertex   -3.690031e+001 8.000000e+001 7.105427e-013
    endloop
  endfacet
  facet normal 9.351131e-001 -2.505628e-001 2.505628e-001
    outer loop
      vertex   -3.690031e+001 8.000000e+001 7.105427e-013
      vertex   -3.703429e+001 8.000000e+001 5.000000e-001
      vertex   -3.703429e+001 7.950000e+001 7.105427e-013
    endloop
  endfacet
  facet normal 9.351131e-001 -2.505628e-001 2.505628e-001
    outer loop
      vertex   -3.703429e+001 7.950000e+001 7.105427e-013
      vertex   -3.703429e+001 8.000000e+001 5.000000e-001
      vertex   -3.715031e+001 7.956699e+001 5.000000e-001
    endloop
  endfacet
  facet normal 6.845503e-001 -6.845503e-001 2.505628e-001
    outer loop
      vertex   -3.703429e+001 7.950000e+001 7.105427e-013
      vertex   -3.715031e+001 7.956699e+001 5.000000e-001
      vertex   -3.740031e+001 7.913397e+001 7.105427e-013
    endloop
  endfacet
  facet normal 6.845503e-001 -6.845503e-001 2.505628e-001
    outer loop
      vertex   -3.740031e+001 7.913397e+001 7.105427e-013
      vertex   -3.715031e+001 7.956699e+001 5.000000e-001
      vertex   -3.746730e+001 7.925000e+001 5.000000e-001
    endloop
  endfacet
  facet normal 2.505628e-001 -9.351131e-001 2.505628e-001
    outer loop
      vertex   -3.740031e+001 7.913397e+001 7.105427e-013
      vertex   -3.746730e+001 7.925000e+001 5.000000e-001
      vertex   -3.790031e+001 7.900000e+001 7.105427e-013
    endloop
  endfacet
  facet normal 2.505628e-001 -9.351131e-001 2.505628e-001
    outer loop
      vertex   -3.790031e+001 7.900000e+001 7.105427e-013
      vertex   -3.746730e+001 7.925000e+001 5.000000e-001
      vertex   -3.790031e+001 7.913397e+001 5.000000e-001
    endloop
  endfacet
  facet normal -2.505628e-001 -9.351131e-001 2.505628e-001
    outer loop
      vertex   -3.790031e+001 7.900000e+001 7.105427e-013
      vertex   -3.790031e+001 7.913397e+001 5.000000e-001
      vertex   -3.840031e+001 7.913397e+001 7.105427e-013
    endloop
  endfacet
  facet normal -2.505628e-001 -9.351131e-001 2.505628e-001
    outer loop
      vertex   -3.840031e+001 7.913397e+001 7.105427e-013
      vertex   -3.790031e+001 7.913397e+001 5.000000e-001
      vertex   -3.833332e+001 7.925000e+001 5.000000e-001
    endloop
  endfacet
  facet normal -6.845503e-001 -6.845503e-001 2.505628e-001
    outer loop
      vertex   -3.840031e+001 7.913397e+001 7.105427e-013
      vertex   -3.833332e+001 7.925000e+001 5.000000e-001
      vertex   -3.876634e+001 7.950000e+001 7.105427e-013
    endloop
  endfacet
  facet normal -6.845503e-001 -6.845503e-001 2.505628e-001
    outer loop
      vertex   -3.876634e+001 7.950000e+001 7.105427e-013
      vertex   -3.833332e+001 7.925000e+001 5.000000e-001
      vertex   -3.865031e+001 7.956699e+001 5.000000e-001
    endloop
  endfacet
  facet normal -9.351131e-001 -2.505628e-001 2.505628e-001
    outer loop
      vertex   -3.876634e+001 7.950000e+001 7.105427e-013
      vertex   -3.865031e+001 7.956699e+001 5.000000e-001
      vertex   -3.890031e+001 8.000000e+001 7.105427e-013
    endloop
  endfacet
  facet normal -9.351131e-001 -2.505628e-001 2.505628e-001
    outer loop
      vertex   -3.890031e+001 8.000000e+001 7.105427e-013
      vertex   -3.865031e+001 7.956699e+001 5.000000e-001
      vertex   -3.876634e+001 8.000000e+001 5.000000e-001
    endloop
  endfacet
  facet normal -9.351131e-001 2.505628e-001 2.505628e-001
    outer loop
      vertex   -3.890031e+001 8.000000e+001 7.105427e-013
      vertex   -3.876634e+001 8.000000e+001 5.000000e-001
      vertex   -3.876634e+001 8.050000e+001 7.105427e-013
    endloop
  endfacet
  facet normal -9.351131e-001 2.505628e-001 2.505628e-001
    outer loop
      vertex   -3.876634e+001 8.050000e+001 7.105427e-013
      vertex   -3.876634e+001 8.000000e+001 5.000000e-001
      vertex   -3.865031e+001 8.043301e+001 5.000000e-001
    endloop
  endfacet
  facet normal -6.845503e-001 6.845503e-001 2.505628e-001
    outer loop
      vertex   -3.876634e+001 8.050000e+001 7.105427e-013
      vertex   -3.865031e+001 8.043301e+001 5.000000e-001
      vertex   -3.840031e+001 8.086603e+001 7.105427e-013
    endloop
  endfacet
  facet normal -6.845503e-001 6.845503e-001 2.505628e-001
    outer loop
      vertex   -3.840031e+001 8.086603e+001 7.105427e-013
      vertex   -3.865031e+001 8.043301e+001 5.000000e-001
      vertex   -3.833332e+001 8.075000e+001 5.000000e-001
    endloop
  endfacet
  facet normal -2.505628e-001 9.351131e-001 2.505628e-001
    outer loop
      vertex   -3.840031e+001 8.086603e+001 7.105427e-013
      vertex   -3.833332e+001 8.075000e+001 5.000000e-001
      vertex   -3.790031e+001 8.100000e+001 7.105427e-013
    endloop
  endfacet
  facet normal -2.505628e-001 9.351131e-001 2.505628e-001
    outer loop
      vertex   -3.790031e+001 8.100000e+001 7.105427e-013
      vertex   -3.833332e+001 8.075000e+001 5.000000e-001
      vertex   -3.790031e+001 8.086603e+001 5.000000e-001
    endloop
  endfacet
  facet normal 2.505628e-001 9.351131e-001 2.505628e-001
    outer loop
      vertex   -3.790031e+001 8.100000e+001 7.105427e-013
      vertex   -3.790031e+001 8.086603e+001 5.000000e-001
      vertex   -3.740031e+001 8.086603e+001 7.105427e-013
    endloop
  endfacet
  facet normal 2.505628e-001 9.351131e-001 2.505628e-001
    outer loop
      vertex   -3.740031e+001 8.086603e+001 7.105427e-013
      vertex   -3.790031e+001 8.086603e+001 5.000000e-001
      vertex   -3.746730e+001 8.075000e+001 5.000000e-001
    endloop
  endfacet
  facet normal 6.845503e-001 6.845503e-001 2.505628e-001
    outer loop
      vertex   -3.740031e+001 8.086603e+001 7.105427e-013
      vertex   -3.746730e+001 8.075000e+001 5.000000e-001
      vertex   -3.703429e+001 8.050000e+001 7.105427e-013
    endloop
  endfacet
  facet normal 6.845503e-001 6.845503e-001 2.505628e-001
    outer loop
      vertex   -3.703429e+001 8.050000e+001 7.105427e-013
      vertex   -3.746730e+001 8.075000e+001 5.000000e-001
      vertex   -3.715031e+001 8.043301e+001 5.000000e-001
    endloop
  endfacet
  facet normal 9.351131e-001 2.505628e-001 2.505628e-001
    outer loop
      vertex   -3.703429e+001 8.050000e+001 7.105427e-013
      vertex   -3.715031e+001 8.043301e+001 5.000000e-001
      vertex   -3.690031e+001 8.000000e+001 7.105427e-013
    endloop
  endfacet
  facet normal 9.351131e-001 2.505628e-001 2.505628e-001
    outer loop
      vertex   -3.690031e+001 8.000000e+001 7.105427e-013
      vertex   -3.715031e+001 8.043301e+001 5.000000e-001
      vertex   -3.703429e+001 8.000000e+001 5.000000e-001
    endloop
  endfacet
  facet normal 6.947466e-001 -1.861568e-001 6.947466e-001
    outer loop
      vertex   -3.703429e+001 8.000000e+001 5.000000e-001
      vertex   -3.740031e+001 8.000000e+001 8.660254e-001
      vertex   -3.715031e+001 7.956699e+001 5.000000e-001
    endloop
  endfacet
  facet normal 6.947466e-001 -1.861568e-001 6.947466e-001
    outer loop
      vertex   -3.715031e+001 7.956699e+001 5.000000e-001
      vertex   -3.740031e+001 8.000000e+001 8.660254e-001
      vertex   -3.746730e+001 7.975000e+001 8.660254e-001
    endloop
  endfacet
  facet normal 5.085898e-001 -5.085898e-001 6.947466e-001
    outer loop
      vertex   -3.715031e+001 7.956699e+001 5.000000e-001
      vertex   -3.746730e+001 7.975000e+001 8.660254e-001
      vertex   -3.746730e+001 7.925000e+001 5.000000e-001
    endloop
  endfacet
  facet normal 5.085898e-001 -5.085898e-001 6.947466e-001
    outer loop
      vertex   -3.746730e+001 7.925000e+001 5.000000e-001
      vertex   -3.746730e+001 7.975000e+001 8.660254e-001
      vertex   -3.765031e+001 7.956699e+001 8.660254e-001
    endloop
  endfacet
  facet normal 1.861568e-001 -6.947466e-001 6.947466e-001
    outer loop
      vertex   -3.746730e+001 7.925000e+001 5.000000e-001
      vertex   -3.765031e+001 7.956699e+001 8.660254e-001
      vertex   -3.790031e+001 7.913397e+001 5.000000e-001
    endloop
  endfacet
  facet normal 1.861568e-001 -6.947466e-001 6.947466e-001
    outer loop
      vertex   -3.790031e+001 7.913397e+001 5.000000e-001
      vertex   -3.765031e+001 7.956699e+001 8.660254e-001
      vertex   -3.790031e+001 7.950000e+001 8.660254e-001
    endloop
  endfacet
  facet normal -1.861568e-001 -6.947466e-001 6.947466e-001
    outer loop
      vertex   -3.790031e+001 7.913397e+001 5.000000e-001
      vertex   -3.790031e+001 7.950000e+001 8.660254e-001
      vertex   -3.833332e+001 7.925000e+001 5.000000e-001
    endloop
  endfacet
  facet normal -1.861568e-001 -6.947466e-001 6.947466e-001
    outer loop
      vertex   -3.833332e+001 7.925000e+001 5.000000e-001
      vertex   -3.790031e+001 7.950000e+001 8.660254e-001
      vertex   -3.815031e+001 7.956699e+001 8.660254e-001
    endloop
  endfacet
  facet normal -5.085898e-001 -5.085898e-001 6.947466e-001
    outer loop
      vertex   -3.833332e+001 7.925000e+001 5.000000e-001
      vertex   -3.815031e+001 7.956699e+001 8.660254e-001
      vertex   -3.865031e+001 7.956699e+001 5.000000e-001
    endloop
  endfacet
  facet normal -5.085898e-001 -5.085898e-001 6.947466e-001
    outer loop
      vertex   -3.865031e+001 7.956699e+001 5.000000e-001
      vertex   -3.815031e+001 7.956699e+001 8.660254e-001
      vertex   -3.833332e+001 7.975000e+001 8.660254e-001
    endloop
  endfacet
  facet normal -6.947466e-001 -1.861568e-001 6.947466e-001
    outer loop
      vertex   -3.865031e+001 7.956699e+001 5.000000e-001
      vertex   -3.833332e+001 7.975000e+001 8.660254e-001
      vertex   -3.876634e+001 8.000000e+001 5.000000e-001
    endloop
  endfacet
  facet normal -6.947466e-001 -1.861568e-001 6.947466e-001
    outer loop
      vertex   -3.876634e+001 8.000000e+001 5.000000e-001
      vertex   -3.833332e+001 7.975000e+001 8.660254e-001
      vertex   -3.840031e+001 8.000000e+001 8.660254e-001
    endloop
  endfacet
  facet normal -6.947466e-001 1.861568e-001 6.947466e-001
    outer loop
      vertex   -3.876634e+001 8.000000e+001 5.000000e-001
      vertex   -3.840031e+001 8.000000e+001 8.660254e-001
      vertex   -3.865031e+001 8.043301e+001 5.000000e-001
    endloop
  endfacet
  facet normal -6.947466e-001 1.861568e-001 6.947466e-001
    outer loop
      vertex   -3.865031e+001 8.043301e+001 5.000000e-001
      vertex   -3.840031e+001 8.000000e+001 8.660254e-001
      vertex   -3.833332e+001 8.025000e+001 8.660254e-001
    endloop
  endfacet
  facet normal -5.085898e-001 5.085898e-001 6.947466e-001
    outer loop
      vertex   -3.865031e+001 8.043301e+001 5.000000e-001
      vertex   -3.833332e+001 8.025000e+001 8.660254e-001
      vertex   -3.833332e+001 8.075000e+001 5.000000e-001
    endloop
  endfacet
  facet normal -5.085898e-001 5.085898e-001 6.947466e-001
    outer loop
      vertex   -3.833332e+001 8.075000e+001 5.000000e-001
      vertex   -3.833332e+001 8.025000e+001 8.660254e-001
      vertex   -3.815031e+001 8.043301e+001 8.660254e-001
    endloop
  endfacet
  facet normal -1.861568e-001 6.947466e-001 6.947466e-001
    outer loop
      vertex   -3.833332e+001 8.075000e+001 5.000000e-001
      vertex   -3.815031e+001 8.043301e+001 8.660254e-001
      vertex   -3.790031e+001 8.086603e+001 5.000000e-001
    endloop
  endfacet
  facet normal -1.861568e-001 6.947466e-001 6.947466e-001
    outer loop
      vertex   -3.790031e+001 8.086603e+001 5.000000e-001
      vertex   -3.815031e+001 8.043301e+001 8.660254e-001
      vertex   -3.790031e+001 8.050000e+001 8.660254e-001
    endloop
  endfacet
  facet normal 1.861568e-001 6.947466e-001 6.947466e-001
    outer loop
      vertex   -3.790031e+001 8.086603e+001 5.000000e-001
      vertex   -3.790031e+001 8.050000e+001 8.660254e-001
      vertex   -3.746730e+001 8.075000e+001 5.000000e-001
    endloop
  endfacet
  facet normal 1.861568e-001 6.947466e-001 6.947466e-001
    outer loop
      vertex   -3.746730e+001 8.075000e+001 5.000000e-001
      vertex   -3.790031e+001 8.050000e+001 8.660254e-001
      vertex   -3.765031e+001 8.043301e+001 8.660254e-001
    endloop
  endfacet
  facet normal 5.085898e-001 5.085898e-001 6.947466e-001
    outer loop
      vertex   -3.746730e+001 8.075000e+001 5.000000e-001
      vertex   -3.765031e+001 8.043301e+001 8.660254e-001
      vertex   -3.715031e+001 8.043301e+001 5.000000e-001
    endloop
  endfacet
  facet normal 5.085898e-001 5.085898e-001 6.947466e-001
    outer loop
      vertex   -3.715031e+001 8.043301e+001 5.000000e-001
      vertex   -3.765031e+001 8.043301e+001 8.660254e-001
      vertex   -3.746730e+001 8.025000e+001 8.660254e-001
    endloop
  endfacet
  facet normal 6.947466e-001 1.861568e-001 6.947466e-001
    outer loop
      vertex   -3.715031e+001 8.043301e+001 5.000000e-001
      vertex   -3.746730e+001 8.025000e+001 8.660254e-001
      vertex   -3.703429e+001 8.000000e+001 5.000000e-001
    endloop
  endfacet
  facet normal 6.947466e-001 1.861568e-001 6.947466e-001
    outer loop
      vertex   -3.703429e+001 8.000000e+001 5.000000e-001
      vertex   -3.746730e+001 8.025000e+001 8.660254e-001
      vertex   -3.740031e+001 8.000000e+001 8.660254e-001
    endloop
  endfacet
  facet normal 2.581989e-001 -6.918418e-002 9.636114e-001
    outer loop
      vertex   -3.740031e+001 8.000000e+001 8.660254e-001
      vertex   -3.790031e+001 8.000000e+001 1.000000e+000
      vertex   -3.746730e+001 7.975000e+001 8.660254e-001
    endloop
  endfacet
  facet normal -2.581989e-001 6.918418e-002 9.636114e-001
    outer loop
      vertex   -3.840031e+001 8.000000e+001 8.660254e-001
      vertex   -3.790031e+001 8.000000e+001 1.000000e+000
      vertex   -3.833332e+001 8.025000e+001 8.660254e-001
    endloop
  endfacet
  facet normal -2.581989e-001 -6.918418e-002 -9.636114e-001
    outer loop
      vertex   -3.840031e+001 8.000000e+001 -8.660254e-001
      vertex   -3.790031e+001 8.000000e+001 -1.000000e+000
      vertex   -3.833332e+001 7.975000e+001 -8.660254e-001
    endloop
  endfacet
endsolid
