solid ASCII
  facet normal -9.961947e-001 -0.000000e+000 -8.715574e-002
    outer loop
      vertex   -5.071760e+000 5.400000e+000 -8.942881e-001
      vertex   -5.071760e+000 0.000000e+000 -8.942881e-001
      vertex   -5.150000e+000 5.400000e+000 6.306931e-016
    endloop
  endfacet
  facet normal -9.961947e-001 -0.000000e+000 -8.715574e-002
    outer loop
      vertex   -5.150000e+000 5.400000e+000 6.306931e-016
      vertex   -5.071760e+000 0.000000e+000 -8.942881e-001
      vertex   -5.150000e+000 0.000000e+000 6.306931e-016
    endloop
  endfacet
  facet normal -9.961947e-001 0.000000e+000 8.715574e-002
    outer loop
      vertex   -5.150000e+000 5.400000e+000 6.306931e-016
      vertex   -5.150000e+000 0.000000e+000 6.306931e-016
      vertex   -5.071760e+000 5.400000e+000 8.942881e-001
    endloop
  endfacet
  facet normal -9.961947e-001 0.000000e+000 8.715574e-002
    outer loop
      vertex   -5.071760e+000 5.400000e+000 8.942881e-001
      vertex   -5.150000e+000 0.000000e+000 6.306931e-016
      vertex   -5.071760e+000 0.000000e+000 8.942881e-001
    endloop
  endfacet
  facet normal -9.659258e-001 0.000000e+000 2.588190e-001
    outer loop
      vertex   -5.071760e+000 5.400000e+000 8.942881e-001
      vertex   -5.071760e+000 0.000000e+000 8.942881e-001
      vertex   -4.839417e+000 5.400000e+000 1.761404e+000
    endloop
  endfacet
  facet normal -9.659258e-001 0.000000e+000 2.588190e-001
    outer loop
      vertex   -4.839417e+000 5.400000e+000 1.761404e+000
      vertex   -5.071760e+000 0.000000e+000 8.942881e-001
      vertex   -4.839417e+000 0.000000e+000 1.761404e+000
    endloop
  endfacet
  facet normal -9.063078e-001 0.000000e+000 4.226183e-001
    outer loop
      vertex   -4.839417e+000 5.400000e+000 1.761404e+000
      vertex   -4.839417e+000 0.000000e+000 1.761404e+000
      vertex   -4.460031e+000 5.400000e+000 2.575000e+000
    endloop
  endfacet
  facet normal -9.063078e-001 0.000000e+000 4.226183e-001
    outer loop
      vertex   -4.460031e+000 5.400000e+000 2.575000e+000
      vertex   -4.839417e+000 0.000000e+000 1.761404e+000
      vertex   -4.460031e+000 0.000000e+000 2.575000e+000
    endloop
  endfacet
  facet normal -8.191520e-001 0.000000e+000 5.735764e-001
    outer loop
      vertex   -4.460031e+000 5.400000e+000 2.575000e+000
      vertex   -4.460031e+000 0.000000e+000 2.575000e+000
      vertex   -3.945129e+000 5.400000e+000 3.310356e+000
    endloop
  endfacet
  facet normal -8.191520e-001 0.000000e+000 5.735764e-001
    outer loop
      vertex   -3.945129e+000 5.400000e+000 3.310356e+000
      vertex   -4.460031e+000 0.000000e+000 2.575000e+000
      vertex   -3.945129e+000 0.000000e+000 3.310356e+000
    endloop
  endfacet
  facet normal -7.071068e-001 0.000000e+000 7.071068e-001
    outer loop
      vertex   -3.945129e+000 5.400000e+000 3.310356e+000
      vertex   -3.945129e+000 0.000000e+000 3.310356e+000
      vertex   -3.310356e+000 5.400000e+000 3.945129e+000
    endloop
  endfacet
  facet normal -7.071068e-001 0.000000e+000 7.071068e-001
    outer loop
      vertex   -3.310356e+000 5.400000e+000 3.945129e+000
      vertex   -3.945129e+000 0.000000e+000 3.310356e+000
      vertex   -3.310356e+000 0.000000e+000 3.945129e+000
    endloop
  endfacet
  facet normal -5.735764e-001 0.000000e+000 8.191520e-001
    outer loop
      vertex   -3.310356e+000 5.400000e+000 3.945129e+000
      vertex   -3.310356e+000 0.000000e+000 3.945129e+000
      vertex   -2.575000e+000 5.400000e+000 4.460031e+000
    endloop
  endfacet
  facet normal -5.735764e-001 0.000000e+000 8.191520e-001
    outer loop
      vertex   -2.575000e+000 5.400000e+000 4.460031e+000
      vertex   -3.310356e+000 0.000000e+000 3.945129e+000
      vertex   -2.575000e+000 0.000000e+000 4.460031e+000
    endloop
  endfacet
  facet normal -4.226183e-001 0.000000e+000 9.063078e-001
    outer loop
      vertex   -2.575000e+000 5.400000e+000 4.460031e+000
      vertex   -2.575000e+000 0.000000e+000 4.460031e+000
      vertex   -1.761404e+000 5.400000e+000 4.839417e+000
    endloop
  endfacet
  facet normal -4.226183e-001 0.000000e+000 9.063078e-001
    outer loop
      vertex   -1.761404e+000 5.400000e+000 4.839417e+000
      vertex   -2.575000e+000 0.000000e+000 4.460031e+000
      vertex   -1.761404e+000 0.000000e+000 4.839417e+000
    endloop
  endfacet
  facet normal -2.588190e-001 0.000000e+000 9.659258e-001
    outer loop
      vertex   -1.761404e+000 5.400000e+000 4.839417e+000
      vertex   -1.761404e+000 0.000000e+000 4.839417e+000
      vertex   -8.942881e-001 5.400000e+000 5.071760e+000
    endloop
  endfacet
  facet normal -2.588190e-001 0.000000e+000 9.659258e-001
    outer loop
      vertex   -8.942881e-001 5.400000e+000 5.071760e+000
      vertex   -1.761404e+000 0.000000e+000 4.839417e+000
      vertex   -8.942881e-001 0.000000e+000 5.071760e+000
    endloop
  endfacet
  facet normal -8.715574e-002 0.000000e+000 9.961947e-001
    outer loop
      vertex   -8.942881e-001 5.400000e+000 5.071760e+000
      vertex   -8.942881e-001 0.000000e+000 5.071760e+000
      vertex   3.153466e-016 5.400000e+000 5.150000e+000
    endloop
  endfacet
  facet normal -8.715574e-002 0.000000e+000 9.961947e-001
    outer loop
      vertex   3.153466e-016 5.400000e+000 5.150000e+000
      vertex   -8.942881e-001 0.000000e+000 5.071760e+000
      vertex   3.153466e-016 0.000000e+000 5.150000e+000
    endloop
  endfacet
  facet normal 8.715574e-002 0.000000e+000 9.961947e-001
    outer loop
      vertex   3.153466e-016 5.400000e+000 5.150000e+000
      vertex   3.153466e-016 0.000000e+000 5.150000e+000
      vertex   8.942881e-001 5.400000e+000 5.071760e+000
    endloop
  endfacet
  facet normal 8.715574e-002 0.000000e+000 9.961947e-001
    outer loop
      vertex   8.942881e-001 5.400000e+000 5.071760e+000
      vertex   3.153466e-016 0.000000e+000 5.150000e+000
      vertex   8.942881e-001 0.000000e+000 5.071760e+000
    endloop
  endfacet
  facet normal 2.588190e-001 0.000000e+000 9.659258e-001
    outer loop
      vertex   8.942881e-001 5.400000e+000 5.071760e+000
      vertex   8.942881e-001 0.000000e+000 5.071760e+000
      vertex   1.761404e+000 5.400000e+000 4.839417e+000
    endloop
  endfacet
  facet normal 2.588190e-001 0.000000e+000 9.659258e-001
    outer loop
      vertex   1.761404e+000 5.400000e+000 4.839417e+000
      vertex   8.942881e-001 0.000000e+000 5.071760e+000
      vertex   1.761404e+000 0.000000e+000 4.839417e+000
    endloop
  endfacet
  facet normal 4.226183e-001 0.000000e+000 9.063078e-001
    outer loop
      vertex   1.761404e+000 5.400000e+000 4.839417e+000
      vertex   1.761404e+000 0.000000e+000 4.839417e+000
      vertex   2.575000e+000 5.400000e+000 4.460031e+000
    endloop
  endfacet
  facet normal 4.226183e-001 0.000000e+000 9.063078e-001
    outer loop
      vertex   2.575000e+000 5.400000e+000 4.460031e+000
      vertex   1.761404e+000 0.000000e+000 4.839417e+000
      vertex   2.575000e+000 0.000000e+000 4.460031e+000
    endloop
  endfacet
  facet normal 5.735764e-001 0.000000e+000 8.191520e-001
    outer loop
      vertex   2.575000e+000 5.400000e+000 4.460031e+000
      vertex   2.575000e+000 0.000000e+000 4.460031e+000
      vertex   3.310356e+000 5.400000e+000 3.945129e+000
    endloop
  endfacet
  facet normal 5.735764e-001 0.000000e+000 8.191520e-001
    outer loop
      vertex   3.310356e+000 5.400000e+000 3.945129e+000
      vertex   2.575000e+000 0.000000e+000 4.460031e+000
      vertex   3.310356e+000 0.000000e+000 3.945129e+000
    endloop
  endfacet
  facet normal 7.071068e-001 0.000000e+000 7.071068e-001
    outer loop
      vertex   3.310356e+000 5.400000e+000 3.945129e+000
      vertex   3.310356e+000 0.000000e+000 3.945129e+000
      vertex   3.945129e+000 5.400000e+000 3.310356e+000
    endloop
  endfacet
  facet normal 7.071068e-001 0.000000e+000 7.071068e-001
    outer loop
      vertex   3.945129e+000 5.400000e+000 3.310356e+000
      vertex   3.310356e+000 0.000000e+000 3.945129e+000
      vertex   3.945129e+000 0.000000e+000 3.310356e+000
    endloop
  endfacet
  facet normal 8.191520e-001 0.000000e+000 5.735764e-001
    outer loop
      vertex   3.945129e+000 5.400000e+000 3.310356e+000
      vertex   3.945129e+000 0.000000e+000 3.310356e+000
      vertex   4.460031e+000 5.400000e+000 2.575000e+000
    endloop
  endfacet
  facet normal 8.191520e-001 0.000000e+000 5.735764e-001
    outer loop
      vertex   4.460031e+000 5.400000e+000 2.575000e+000
      vertex   3.945129e+000 0.000000e+000 3.310356e+000
      vertex   4.460031e+000 0.000000e+000 2.575000e+000
    endloop
  endfacet
  facet normal 9.063078e-001 0.000000e+000 4.226183e-001
    outer loop
      vertex   4.460031e+000 5.400000e+000 2.575000e+000
      vertex   4.460031e+000 0.000000e+000 2.575000e+000
      vertex   4.839417e+000 5.400000e+000 1.761404e+000
    endloop
  endfacet
  facet normal 9.063078e-001 0.000000e+000 4.226183e-001
    outer loop
      vertex   4.839417e+000 5.400000e+000 1.761404e+000
      vertex   4.460031e+000 0.000000e+000 2.575000e+000
      vertex   4.839417e+000 0.000000e+000 1.761404e+000
    endloop
  endfacet
  facet normal 9.659258e-001 0.000000e+000 2.588190e-001
    outer loop
      vertex   4.839417e+000 5.400000e+000 1.761404e+000
      vertex   4.839417e+000 0.000000e+000 1.761404e+000
      vertex   5.071760e+000 5.400000e+000 8.942881e-001
    endloop
  endfacet
  facet normal 9.659258e-001 0.000000e+000 2.588190e-001
    outer loop
      vertex   5.071760e+000 5.400000e+000 8.942881e-001
      vertex   4.839417e+000 0.000000e+000 1.761404e+000
      vertex   5.071760e+000 0.000000e+000 8.942881e-001
    endloop
  endfacet
  facet normal 9.961947e-001 0.000000e+000 8.715574e-002
    outer loop
      vertex   5.071760e+000 5.400000e+000 8.942881e-001
      vertex   5.071760e+000 0.000000e+000 8.942881e-001
      vertex   5.150000e+000 5.400000e+000 0.000000e+000
    endloop
  endfacet
  facet normal 9.961947e-001 0.000000e+000 8.715574e-002
    outer loop
      vertex   5.150000e+000 5.400000e+000 0.000000e+000
      vertex   5.071760e+000 0.000000e+000 8.942881e-001
      vertex   5.150000e+000 0.000000e+000 0.000000e+000
    endloop
  endfacet
  facet normal 9.961947e-001 0.000000e+000 -8.715574e-002
    outer loop
      vertex   5.150000e+000 5.400000e+000 0.000000e+000
      vertex   5.150000e+000 0.000000e+000 0.000000e+000
      vertex   5.071760e+000 5.400000e+000 -8.942881e-001
    endloop
  endfacet
  facet normal 9.961947e-001 0.000000e+000 -8.715574e-002
    outer loop
      vertex   5.071760e+000 5.400000e+000 -8.942881e-001
      vertex   5.150000e+000 0.000000e+000 0.000000e+000
      vertex   5.071760e+000 0.000000e+000 -8.942881e-001
    endloop
  endfacet
  facet normal 9.659258e-001 0.000000e+000 -2.588190e-001
    outer loop
      vertex   5.071760e+000 5.400000e+000 -8.942881e-001
      vertex   5.071760e+000 0.000000e+000 -8.942881e-001
      vertex   4.839417e+000 5.400000e+000 -1.761404e+000
    endloop
  endfacet
  facet normal 9.659258e-001 0.000000e+000 -2.588190e-001
    outer loop
      vertex   4.839417e+000 5.400000e+000 -1.761404e+000
      vertex   5.071760e+000 0.000000e+000 -8.942881e-001
      vertex   4.839417e+000 0.000000e+000 -1.761404e+000
    endloop
  endfacet
  facet normal 9.063078e-001 0.000000e+000 -4.226183e-001
    outer loop
      vertex   4.839417e+000 5.400000e+000 -1.761404e+000
      vertex   4.839417e+000 0.000000e+000 -1.761404e+000
      vertex   4.460031e+000 5.400000e+000 -2.575000e+000
    endloop
  endfacet
  facet normal 9.063078e-001 0.000000e+000 -4.226183e-001
    outer loop
      vertex   4.460031e+000 5.400000e+000 -2.575000e+000
      vertex   4.839417e+000 0.000000e+000 -1.761404e+000
      vertex   4.460031e+000 0.000000e+000 -2.575000e+000
    endloop
  endfacet
  facet normal 8.191520e-001 0.000000e+000 -5.735764e-001
    outer loop
      vertex   4.460031e+000 5.400000e+000 -2.575000e+000
      vertex   4.460031e+000 0.000000e+000 -2.575000e+000
      vertex   3.945129e+000 5.400000e+000 -3.310356e+000
    endloop
  endfacet
  facet normal 8.191520e-001 0.000000e+000 -5.735764e-001
    outer loop
      vertex   3.945129e+000 5.400000e+000 -3.310356e+000
      vertex   4.460031e+000 0.000000e+000 -2.575000e+000
      vertex   3.945129e+000 0.000000e+000 -3.310356e+000
    endloop
  endfacet
  facet normal 7.071068e-001 0.000000e+000 -7.071068e-001
    outer loop
      vertex   3.945129e+000 5.400000e+000 -3.310356e+000
      vertex   3.945129e+000 0.000000e+000 -3.310356e+000
      vertex   3.310356e+000 5.400000e+000 -3.945129e+000
    endloop
  endfacet
  facet normal 7.071068e-001 0.000000e+000 -7.071068e-001
    outer loop
      vertex   3.310356e+000 5.400000e+000 -3.945129e+000
      vertex   3.945129e+000 0.000000e+000 -3.310356e+000
      vertex   3.310356e+000 0.000000e+000 -3.945129e+000
    endloop
  endfacet
  facet normal 5.735764e-001 0.000000e+000 -8.191520e-001
    outer loop
      vertex   3.310356e+000 5.400000e+000 -3.945129e+000
      vertex   3.310356e+000 0.000000e+000 -3.945129e+000
      vertex   2.575000e+000 5.400000e+000 -4.460031e+000
    endloop
  endfacet
  facet normal 5.735764e-001 0.000000e+000 -8.191520e-001
    outer loop
      vertex   2.575000e+000 5.400000e+000 -4.460031e+000
      vertex   3.310356e+000 0.000000e+000 -3.945129e+000
      vertex   2.575000e+000 0.000000e+000 -4.460031e+000
    endloop
  endfacet
  facet normal 4.226183e-001 0.000000e+000 -9.063078e-001
    outer loop
      vertex   2.575000e+000 5.400000e+000 -4.460031e+000
      vertex   2.575000e+000 0.000000e+000 -4.460031e+000
      vertex   1.761404e+000 5.400000e+000 -4.839417e+000
    endloop
  endfacet
  facet normal 4.226183e-001 0.000000e+000 -9.063078e-001
    outer loop
      vertex   1.761404e+000 5.400000e+000 -4.839417e+000
      vertex   2.575000e+000 0.000000e+000 -4.460031e+000
      vertex   1.761404e+000 0.000000e+000 -4.839417e+000
    endloop
  endfacet
  facet normal 2.588190e-001 0.000000e+000 -9.659258e-001
    outer loop
      vertex   1.761404e+000 5.400000e+000 -4.839417e+000
      vertex   1.761404e+000 0.000000e+000 -4.839417e+000
      vertex   8.942881e-001 5.400000e+000 -5.071760e+000
    endloop
  endfacet
  facet normal 2.588190e-001 0.000000e+000 -9.659258e-001
    outer loop
      vertex   8.942881e-001 5.400000e+000 -5.071760e+000
      vertex   1.761404e+000 0.000000e+000 -4.839417e+000
      vertex   8.942881e-001 0.000000e+000 -5.071760e+000
    endloop
  endfacet
  facet normal 8.715574e-002 0.000000e+000 -9.961947e-001
    outer loop
      vertex   8.942881e-001 5.400000e+000 -5.071760e+000
      vertex   8.942881e-001 0.000000e+000 -5.071760e+000
      vertex   3.153466e-016 5.400000e+000 -5.150000e+000
    endloop
  endfacet
  facet normal 8.715574e-002 0.000000e+000 -9.961947e-001
    outer loop
      vertex   3.153466e-016 5.400000e+000 -5.150000e+000
      vertex   8.942881e-001 0.000000e+000 -5.071760e+000
      vertex   3.153466e-016 0.000000e+000 -5.150000e+000
    endloop
  endfacet
  facet normal -8.715574e-002 -0.000000e+000 -9.961947e-001
    outer loop
      vertex   3.153466e-016 5.400000e+000 -5.150000e+000
      vertex   3.153466e-016 0.000000e+000 -5.150000e+000
      vertex   -8.942881e-001 5.400000e+000 -5.071760e+000
    endloop
  endfacet
  facet normal -8.715574e-002 -0.000000e+000 -9.961947e-001
    outer loop
      vertex   -8.942881e-001 5.400000e+000 -5.071760e+000
      vertex   3.153466e-016 0.000000e+000 -5.150000e+000
      vertex   -8.942881e-001 0.000000e+000 -5.071760e+000
    endloop
  endfacet
  facet normal -2.588190e-001 -0.000000e+000 -9.659258e-001
    outer loop
      vertex   -8.942881e-001 5.400000e+000 -5.071760e+000
      vertex   -8.942881e-001 0.000000e+000 -5.071760e+000
      vertex   -1.761404e+000 5.400000e+000 -4.839417e+000
    endloop
  endfacet
  facet normal -2.588190e-001 -0.000000e+000 -9.659258e-001
    outer loop
      vertex   -1.761404e+000 5.400000e+000 -4.839417e+000
      vertex   -8.942881e-001 0.000000e+000 -5.071760e+000
      vertex   -1.761404e+000 0.000000e+000 -4.839417e+000
    endloop
  endfacet
  facet normal -4.226183e-001 -0.000000e+000 -9.063078e-001
    outer loop
      vertex   -1.761404e+000 5.400000e+000 -4.839417e+000
      vertex   -1.761404e+000 0.000000e+000 -4.839417e+000
      vertex   -2.575000e+000 5.400000e+000 -4.460031e+000
    endloop
  endfacet
  facet normal -4.226183e-001 -0.000000e+000 -9.063078e-001
    outer loop
      vertex   -2.575000e+000 5.400000e+000 -4.460031e+000
      vertex   -1.761404e+000 0.000000e+000 -4.839417e+000
      vertex   -2.575000e+000 0.000000e+000 -4.460031e+000
    endloop
  endfacet
  facet normal -5.735764e-001 -0.000000e+000 -8.191520e-001
    outer loop
      vertex   -2.575000e+000 5.400000e+000 -4.460031e+000
      vertex   -2.575000e+000 0.000000e+000 -4.460031e+000
      vertex   -3.310356e+000 5.400000e+000 -3.945129e+000
    endloop
  endfacet
  facet normal -5.735764e-001 -0.000000e+000 -8.191520e-001
    outer loop
      vertex   -3.310356e+000 5.400000e+000 -3.945129e+000
      vertex   -2.575000e+000 0.000000e+000 -4.460031e+000
      vertex   -3.310356e+000 0.000000e+000 -3.945129e+000
    endloop
  endfacet
  facet normal -7.071068e-001 -0.000000e+000 -7.071068e-001
    outer loop
      vertex   -3.310356e+000 5.400000e+000 -3.945129e+000
      vertex   -3.310356e+000 0.000000e+000 -3.945129e+000
      vertex   -3.945129e+000 5.400000e+000 -3.310356e+000
    endloop
  endfacet
  facet normal -7.071068e-001 -0.000000e+000 -7.071068e-001
    outer loop
      vertex   -3.945129e+000 5.400000e+000 -3.310356e+000
      vertex   -3.310356e+000 0.000000e+000 -3.945129e+000
      vertex   -3.945129e+000 0.000000e+000 -3.310356e+000
    endloop
  endfacet
  facet normal -8.191520e-001 -0.000000e+000 -5.735764e-001
    outer loop
      vertex   -3.945129e+000 5.400000e+000 -3.310356e+000
      vertex   -3.945129e+000 0.000000e+000 -3.310356e+000
      vertex   -4.460031e+000 5.400000e+000 -2.575000e+000
    endloop
  endfacet
  facet normal -8.191520e-001 -0.000000e+000 -5.735764e-001
    outer loop
      vertex   -4.460031e+000 5.400000e+000 -2.575000e+000
      vertex   -3.945129e+000 0.000000e+000 -3.310356e+000
      vertex   -4.460031e+000 0.000000e+000 -2.575000e+000
    endloop
  endfacet
  facet normal -9.063078e-001 -0.000000e+000 -4.226183e-001
    outer loop
      vertex   -4.460031e+000 5.400000e+000 -2.575000e+000
      vertex   -4.460031e+000 0.000000e+000 -2.575000e+000
      vertex   -4.839417e+000 5.400000e+000 -1.761404e+000
    endloop
  endfacet
  facet normal -9.063078e-001 -0.000000e+000 -4.226183e-001
    outer loop
      vertex   -4.839417e+000 5.400000e+000 -1.761404e+000
      vertex   -4.460031e+000 0.000000e+000 -2.575000e+000
      vertex   -4.839417e+000 0.000000e+000 -1.761404e+000
    endloop
  endfacet
  facet normal -9.659258e-001 -0.000000e+000 -2.588190e-001
    outer loop
      vertex   -4.839417e+000 5.400000e+000 -1.761404e+000
      vertex   -4.839417e+000 0.000000e+000 -1.761404e+000
      vertex   -5.071760e+000 5.400000e+000 -8.942881e-001
    endloop
  endfacet
  facet normal -9.659258e-001 -0.000000e+000 -2.588190e-001
    outer loop
      vertex   -5.071760e+000 5.400000e+000 -8.942881e-001
      vertex   -4.839417e+000 0.000000e+000 -1.761404e+000
      vertex   -5.071760e+000 0.000000e+000 -8.942881e-001
    endloop
  endfacet
  facet normal -0.000000e+000 1.000000e+000 0.000000e+000
    outer loop
      vertex   -5.071760e+000 5.400000e+000 8.942881e-001
      vertex   5.071760e+000 5.400000e+000 8.942881e-001
      vertex   -5.150000e+000 5.400000e+000 6.306931e-016
    endloop
  endfacet
  facet normal -0.000000e+000 1.000000e+000 0.000000e+000
    outer loop
      vertex   -5.150000e+000 5.400000e+000 6.306931e-016
      vertex   5.071760e+000 5.400000e+000 8.942881e-001
      vertex   5.150000e+000 5.400000e+000 0.000000e+000
    endloop
  endfacet
  facet normal 0.000000e+000 1.000000e+000 0.000000e+000
    outer loop
      vertex   -5.150000e+000 5.400000e+000 6.306931e-016
      vertex   5.150000e+000 5.400000e+000 0.000000e+000
      vertex   -5.071760e+000 5.400000e+000 -8.942881e-001
    endloop
  endfacet
  facet normal 0.000000e+000 1.000000e+000 0.000000e+000
    outer loop
      vertex   -5.071760e+000 5.400000e+000 -8.942881e-001
      vertex   5.150000e+000 5.400000e+000 0.000000e+000
      vertex   5.071760e+000 5.400000e+000 -8.942881e-001
    endloop
  endfacet
  facet normal -0.000000e+000 1.000000e+000 0.000000e+000
    outer loop
      vertex   -5.071760e+000 5.400000e+000 -8.942881e-001
      vertex   5.071760e+000 5.400000e+000 -8.942881e-001
      vertex   -4.839417e+000 5.400000e+000 -1.761404e+000
    endloop
  endfacet
  facet normal 0.000000e+000 1.000000e+000 0.000000e+000
    outer loop
      vertex   -4.839417e+000 5.400000e+000 -1.761404e+000
      vertex   5.071760e+000 5.400000e+000 -8.942881e-001
      vertex   4.839417e+000 5.400000e+000 -1.761404e+000
    endloop
  endfacet
  facet normal -0.000000e+000 1.000000e+000 0.000000e+000
    outer loop
      vertex   -4.839417e+000 5.400000e+000 -1.761404e+000
      vertex   4.839417e+000 5.400000e+000 -1.761404e+000
      vertex   -4.460031e+000 5.400000e+000 -2.575000e+000
    endloop
  endfacet
  facet normal 0.000000e+000 1.000000e+000 0.000000e+000
    outer loop
      vertex   -4.460031e+000 5.400000e+000 -2.575000e+000
      vertex   4.839417e+000 5.400000e+000 -1.761404e+000
      vertex   4.460031e+000 5.400000e+000 -2.575000e+000
    endloop
  endfacet
  facet normal -0.000000e+000 1.000000e+000 0.000000e+000
    outer loop
      vertex   -4.460031e+000 5.400000e+000 -2.575000e+000
      vertex   4.460031e+000 5.400000e+000 -2.575000e+000
      vertex   -3.945129e+000 5.400000e+000 -3.310356e+000
    endloop
  endfacet
  facet normal 0.000000e+000 1.000000e+000 0.000000e+000
    outer loop
      vertex   -3.945129e+000 5.400000e+000 -3.310356e+000
      vertex   4.460031e+000 5.400000e+000 -2.575000e+000
      vertex   3.945129e+000 5.400000e+000 -3.310356e+000
    endloop
  endfacet
  facet normal -0.000000e+000 1.000000e+000 0.000000e+000
    outer loop
      vertex   -3.945129e+000 5.400000e+000 -3.310356e+000
      vertex   3.945129e+000 5.400000e+000 -3.310356e+000
      vertex   -3.310356e+000 5.400000e+000 -3.945129e+000
    endloop
  endfacet
  facet normal 0.000000e+000 1.000000e+000 0.000000e+000
    outer loop
      vertex   -3.310356e+000 5.400000e+000 -3.945129e+000
      vertex   3.945129e+000 5.400000e+000 -3.310356e+000
      vertex   3.310356e+000 5.400000e+000 -3.945129e+000
    endloop
  endfacet
  facet normal -0.000000e+000 1.000000e+000 0.000000e+000
    outer loop
      vertex   -3.310356e+000 5.400000e+000 -3.945129e+000
      vertex   3.310356e+000 5.400000e+000 -3.945129e+000
      vertex   -2.575000e+000 5.400000e+000 -4.460031e+000
    endloop
  endfacet
  facet normal 0.000000e+000 1.000000e+000 0.000000e+000
    outer loop
      vertex   -2.575000e+000 5.400000e+000 -4.460031e+000
      vertex   3.310356e+000 5.400000e+000 -3.945129e+000
      vertex   2.575000e+000 5.400000e+000 -4.460031e+000
    endloop
  endfacet
  facet normal -0.000000e+000 1.000000e+000 0.000000e+000
    outer loop
      vertex   -2.575000e+000 5.400000e+000 -4.460031e+000
      vertex   2.575000e+000 5.400000e+000 -4.460031e+000
      vertex   -1.761404e+000 5.400000e+000 -4.839417e+000
    endloop
  endfacet
  facet normal 0.000000e+000 1.000000e+000 0.000000e+000
    outer loop
      vertex   -1.761404e+000 5.400000e+000 -4.839417e+000
      vertex   2.575000e+000 5.400000e+000 -4.460031e+000
      vertex   1.761404e+000 5.400000e+000 -4.839417e+000
    endloop
  endfacet
  facet normal -0.000000e+000 1.000000e+000 0.000000e+000
    outer loop
      vertex   -1.761404e+000 5.400000e+000 -4.839417e+000
      vertex   1.761404e+000 5.400000e+000 -4.839417e+000
      vertex   -8.942881e-001 5.400000e+000 -5.071760e+000
    endloop
  endfacet
  facet normal 0.000000e+000 1.000000e+000 0.000000e+000
    outer loop
      vertex   -8.942881e-001 5.400000e+000 -5.071760e+000
      vertex   1.761404e+000 5.400000e+000 -4.839417e+000
      vertex   8.942881e-001 5.400000e+000 -5.071760e+000
    endloop
  endfacet
  facet normal -0.000000e+000 1.000000e+000 0.000000e+000
    outer loop
      vertex   -8.942881e-001 5.400000e+000 -5.071760e+000
      vertex   8.942881e-001 5.400000e+000 -5.071760e+000
      vertex   3.153466e-016 5.400000e+000 -5.150000e+000
    endloop
  endfacet
  facet normal 0.000000e+000 1.000000e+000 0.000000e+000
    outer loop
      vertex   5.071760e+000 5.400000e+000 8.942881e-001
      vertex   -5.071760e+000 5.400000e+000 8.942881e-001
      vertex   4.839417e+000 5.400000e+000 1.761404e+000
    endloop
  endfacet
  facet normal 0.000000e+000 1.000000e+000 0.000000e+000
    outer loop
      vertex   4.839417e+000 5.400000e+000 1.761404e+000
      vertex   -5.071760e+000 5.400000e+000 8.942881e-001
      vertex   -4.839417e+000 5.400000e+000 1.761404e+000
    endloop
  endfacet
  facet normal 0.000000e+000 1.000000e+000 0.000000e+000
    outer loop
      vertex   4.839417e+000 5.400000e+000 1.761404e+000
      vertex   -4.839417e+000 5.400000e+000 1.761404e+000
      vertex   4.460031e+000 5.400000e+000 2.575000e+000
    endloop
  endfacet
  facet normal 0.000000e+000 1.000000e+000 0.000000e+000
    outer loop
      vertex   4.460031e+000 5.400000e+000 2.575000e+000
      vertex   -4.839417e+000 5.400000e+000 1.761404e+000
      vertex   -4.460031e+000 5.400000e+000 2.575000e+000
    endloop
  endfacet
  facet normal 0.000000e+000 1.000000e+000 0.000000e+000
    outer loop
      vertex   4.460031e+000 5.400000e+000 2.575000e+000
      vertex   -4.460031e+000 5.400000e+000 2.575000e+000
      vertex   3.945129e+000 5.400000e+000 3.310356e+000
    endloop
  endfacet
  facet normal 0.000000e+000 1.000000e+000 0.000000e+000
    outer loop
      vertex   3.945129e+000 5.400000e+000 3.310356e+000
      vertex   -4.460031e+000 5.400000e+000 2.575000e+000
      vertex   -3.945129e+000 5.400000e+000 3.310356e+000
    endloop
  endfacet
  facet normal 0.000000e+000 1.000000e+000 0.000000e+000
    outer loop
      vertex   3.945129e+000 5.400000e+000 3.310356e+000
      vertex   -3.945129e+000 5.400000e+000 3.310356e+000
      vertex   3.310356e+000 5.400000e+000 3.945129e+000
    endloop
  endfacet
  facet normal 0.000000e+000 1.000000e+000 0.000000e+000
    outer loop
      vertex   3.310356e+000 5.400000e+000 3.945129e+000
      vertex   -3.945129e+000 5.400000e+000 3.310356e+000
      vertex   -3.310356e+000 5.400000e+000 3.945129e+000
    endloop
  endfacet
  facet normal 0.000000e+000 1.000000e+000 0.000000e+000
    outer loop
      vertex   3.310356e+000 5.400000e+000 3.945129e+000
      vertex   -3.310356e+000 5.400000e+000 3.945129e+000
      vertex   2.575000e+000 5.400000e+000 4.460031e+000
    endloop
  endfacet
  facet normal 0.000000e+000 1.000000e+000 0.000000e+000
    outer loop
      vertex   2.575000e+000 5.400000e+000 4.460031e+000
      vertex   -3.310356e+000 5.400000e+000 3.945129e+000
      vertex   -2.575000e+000 5.400000e+000 4.460031e+000
    endloop
  endfacet
  facet normal 0.000000e+000 1.000000e+000 0.000000e+000
    outer loop
      vertex   2.575000e+000 5.400000e+000 4.460031e+000
      vertex   -2.575000e+000 5.400000e+000 4.460031e+000
      vertex   1.761404e+000 5.400000e+000 4.839417e+000
    endloop
  endfacet
  facet normal 0.000000e+000 1.000000e+000 0.000000e+000
    outer loop
      vertex   1.761404e+000 5.400000e+000 4.839417e+000
      vertex   -2.575000e+000 5.400000e+000 4.460031e+000
      vertex   -1.761404e+000 5.400000e+000 4.839417e+000
    endloop
  endfacet
  facet normal 0.000000e+000 1.000000e+000 0.000000e+000
    outer loop
      vertex   1.761404e+000 5.400000e+000 4.839417e+000
      vertex   -1.761404e+000 5.400000e+000 4.839417e+000
      vertex   8.942881e-001 5.400000e+000 5.071760e+000
    endloop
  endfacet
  facet normal 0.000000e+000 1.000000e+000 0.000000e+000
    outer loop
      vertex   8.942881e-001 5.400000e+000 5.071760e+000
      vertex   -1.761404e+000 5.400000e+000 4.839417e+000
      vertex   -8.942881e-001 5.400000e+000 5.071760e+000
    endloop
  endfacet
  facet normal 0.000000e+000 1.000000e+000 0.000000e+000
    outer loop
      vertex   8.942881e-001 5.400000e+000 5.071760e+000
      vertex   -8.942881e-001 5.400000e+000 5.071760e+000
      vertex   3.153466e-016 5.400000e+000 5.150000e+000
    endloop
  endfacet
  facet normal 0.000000e+000 -1.000000e+000 0.000000e+000
    outer loop
      vertex   -5.071760e+000 0.000000e+000 -8.942881e-001
      vertex   5.071760e+000 0.000000e+000 -8.942881e-001
      vertex   -5.150000e+000 0.000000e+000 6.306931e-016
    endloop
  endfacet
  facet normal 0.000000e+000 -1.000000e+000 0.000000e+000
    outer loop
      vertex   -5.150000e+000 0.000000e+000 6.306931e-016
      vertex   5.071760e+000 0.000000e+000 -8.942881e-001
      vertex   5.150000e+000 0.000000e+000 0.000000e+000
    endloop
  endfacet
  facet normal 0.000000e+000 -1.000000e+000 0.000000e+000
    outer loop
      vertex   -5.150000e+000 0.000000e+000 6.306931e-016
      vertex   5.150000e+000 0.000000e+000 0.000000e+000
      vertex   -5.071760e+000 0.000000e+000 8.942881e-001
    endloop
  endfacet
  facet normal 0.000000e+000 -1.000000e+000 0.000000e+000
    outer loop
      vertex   -5.071760e+000 0.000000e+000 8.942881e-001
      vertex   5.150000e+000 0.000000e+000 0.000000e+000
      vertex   5.071760e+000 0.000000e+000 8.942881e-001
    endloop
  endfacet
  facet normal 0.000000e+000 -1.000000e+000 0.000000e+000
    outer loop
      vertex   -5.071760e+000 0.000000e+000 8.942881e-001
      vertex   5.071760e+000 0.000000e+000 8.942881e-001
      vertex   -4.839417e+000 0.000000e+000 1.761404e+000
    endloop
  endfacet
  facet normal 0.000000e+000 -1.000000e+000 0.000000e+000
    outer loop
      vertex   -4.839417e+000 0.000000e+000 1.761404e+000
      vertex   5.071760e+000 0.000000e+000 8.942881e-001
      vertex   4.839417e+000 0.000000e+000 1.761404e+000
    endloop
  endfacet
  facet normal 0.000000e+000 -1.000000e+000 0.000000e+000
    outer loop
      vertex   -4.839417e+000 0.000000e+000 1.761404e+000
      vertex   4.839417e+000 0.000000e+000 1.761404e+000
      vertex   -4.460031e+000 0.000000e+000 2.575000e+000
    endloop
  endfacet
  facet normal 0.000000e+000 -1.000000e+000 0.000000e+000
    outer loop
      vertex   -4.460031e+000 0.000000e+000 2.575000e+000
      vertex   4.839417e+000 0.000000e+000 1.761404e+000
      vertex   4.460031e+000 0.000000e+000 2.575000e+000
    endloop
  endfacet
  facet normal 0.000000e+000 -1.000000e+000 0.000000e+000
    outer loop
      vertex   -4.460031e+000 0.000000e+000 2.575000e+000
      vertex   4.460031e+000 0.000000e+000 2.575000e+000
      vertex   -3.945129e+000 0.000000e+000 3.310356e+000
    endloop
  endfacet
  facet normal 0.000000e+000 -1.000000e+000 0.000000e+000
    outer loop
      vertex   -3.945129e+000 0.000000e+000 3.310356e+000
      vertex   4.460031e+000 0.000000e+000 2.575000e+000
      vertex   3.945129e+000 0.000000e+000 3.310356e+000
    endloop
  endfacet
  facet normal 0.000000e+000 -1.000000e+000 0.000000e+000
    outer loop
      vertex   -3.945129e+000 0.000000e+000 3.310356e+000
      vertex   3.945129e+000 0.000000e+000 3.310356e+000
      vertex   -3.310356e+000 0.000000e+000 3.945129e+000
    endloop
  endfacet
  facet normal 0.000000e+000 -1.000000e+000 0.000000e+000
    outer loop
      vertex   -3.310356e+000 0.000000e+000 3.945129e+000
      vertex   3.945129e+000 0.000000e+000 3.310356e+000
      vertex   3.310356e+000 0.000000e+000 3.945129e+000
    endloop
  endfacet
  facet normal 0.000000e+000 -1.000000e+000 0.000000e+000
    outer loop
      vertex   -3.310356e+000 0.000000e+000 3.945129e+000
      vertex   3.310356e+000 0.000000e+000 3.945129e+000
      vertex   -2.575000e+000 0.000000e+000 4.460031e+000
    endloop
  endfacet
  facet normal 0.000000e+000 -1.000000e+000 0.000000e+000
    outer loop
      vertex   -2.575000e+000 0.000000e+000 4.460031e+000
      vertex   3.310356e+000 0.000000e+000 3.945129e+000
      vertex   2.575000e+000 0.000000e+000 4.460031e+000
    endloop
  endfacet
  facet normal 0.000000e+000 -1.000000e+000 0.000000e+000
    outer loop
      vertex   -2.575000e+000 0.000000e+000 4.460031e+000
      vertex   2.575000e+000 0.000000e+000 4.460031e+000
      vertex   -1.761404e+000 0.000000e+000 4.839417e+000
    endloop
  endfacet
  facet normal 0.000000e+000 -1.000000e+000 0.000000e+000
    outer loop
      vertex   -1.761404e+000 0.000000e+000 4.839417e+000
      vertex   2.575000e+000 0.000000e+000 4.460031e+000
      vertex   1.761404e+000 0.000000e+000 4.839417e+000
    endloop
  endfacet
  facet normal 0.000000e+000 -1.000000e+000 0.000000e+000
    outer loop
      vertex   -1.761404e+000 0.000000e+000 4.839417e+000
      vertex   1.761404e+000 0.000000e+000 4.839417e+000
      vertex   -8.942881e-001 0.000000e+000 5.071760e+000
    endloop
  endfacet
  facet normal 0.000000e+000 -1.000000e+000 0.000000e+000
    outer loop
      vertex   -8.942881e-001 0.000000e+000 5.071760e+000
      vertex   1.761404e+000 0.000000e+000 4.839417e+000
      vertex   8.942881e-001 0.000000e+000 5.071760e+000
    endloop
  endfacet
  facet normal 0.000000e+000 -1.000000e+000 0.000000e+000
    outer loop
      vertex   -8.942881e-001 0.000000e+000 5.071760e+000
      vertex   8.942881e-001 0.000000e+000 5.071760e+000
      vertex   3.153466e-016 0.000000e+000 5.150000e+000
    endloop
  endfacet
  facet normal 0.000000e+000 -1.000000e+000 0.000000e+000
    outer loop
      vertex   5.071760e+000 0.000000e+000 -8.942881e-001
      vertex   -5.071760e+000 0.000000e+000 -8.942881e-001
      vertex   4.839417e+000 0.000000e+000 -1.761404e+000
    endloop
  endfacet
  facet normal -0.000000e+000 -1.000000e+000 0.000000e+000
    outer loop
      vertex   4.839417e+000 0.000000e+000 -1.761404e+000
      vertex   -5.071760e+000 0.000000e+000 -8.942881e-001
      vertex   -4.839417e+000 0.000000e+000 -1.761404e+000
    endloop
  endfacet
  facet normal 0.000000e+000 -1.000000e+000 0.000000e+000
    outer loop
      vertex   4.839417e+000 0.000000e+000 -1.761404e+000
      vertex   -4.839417e+000 0.000000e+000 -1.761404e+000
      vertex   4.460031e+000 0.000000e+000 -2.575000e+000
    endloop
  endfacet
  facet normal -0.000000e+000 -1.000000e+000 0.000000e+000
    outer loop
      vertex   4.460031e+000 0.000000e+000 -2.575000e+000
      vertex   -4.839417e+000 0.000000e+000 -1.761404e+000
      vertex   -4.460031e+000 0.000000e+000 -2.575000e+000
    endloop
  endfacet
  facet normal 0.000000e+000 -1.000000e+000 0.000000e+000
    outer loop
      vertex   4.460031e+000 0.000000e+000 -2.575000e+000
      vertex   -4.460031e+000 0.000000e+000 -2.575000e+000
      vertex   3.945129e+000 0.000000e+000 -3.310356e+000
    endloop
  endfacet
  facet normal -0.000000e+000 -1.000000e+000 0.000000e+000
    outer loop
      vertex   3.945129e+000 0.000000e+000 -3.310356e+000
      vertex   -4.460031e+000 0.000000e+000 -2.575000e+000
      vertex   -3.945129e+000 0.000000e+000 -3.310356e+000
    endloop
  endfacet
  facet normal 0.000000e+000 -1.000000e+000 0.000000e+000
    outer loop
      vertex   3.945129e+000 0.000000e+000 -3.310356e+000
      vertex   -3.945129e+000 0.000000e+000 -3.310356e+000
      vertex   3.310356e+000 0.000000e+000 -3.945129e+000
    endloop
  endfacet
  facet normal -0.000000e+000 -1.000000e+000 0.000000e+000
    outer loop
      vertex   3.310356e+000 0.000000e+000 -3.945129e+000
      vertex   -3.945129e+000 0.000000e+000 -3.310356e+000
      vertex   -3.310356e+000 0.000000e+000 -3.945129e+000
    endloop
  endfacet
  facet normal 0.000000e+000 -1.000000e+000 0.000000e+000
    outer loop
      vertex   3.310356e+000 0.000000e+000 -3.945129e+000
      vertex   -3.310356e+000 0.000000e+000 -3.945129e+000
      vertex   2.575000e+000 0.000000e+000 -4.460031e+000
    endloop
  endfacet
  facet normal -0.000000e+000 -1.000000e+000 0.000000e+000
    outer loop
      vertex   2.575000e+000 0.000000e+000 -4.460031e+000
      vertex   -3.310356e+000 0.000000e+000 -3.945129e+000
      vertex   -2.575000e+000 0.000000e+000 -4.460031e+000
    endloop
  endfacet
  facet normal 0.000000e+000 -1.000000e+000 0.000000e+000
    outer loop
      vertex   2.575000e+000 0.000000e+000 -4.460031e+000
      vertex   -2.575000e+000 0.000000e+000 -4.460031e+000
      vertex   1.761404e+000 0.000000e+000 -4.839417e+000
    endloop
  endfacet
  facet normal -0.000000e+000 -1.000000e+000 0.000000e+000
    outer loop
      vertex   1.761404e+000 0.000000e+000 -4.839417e+000
      vertex   -2.575000e+000 0.000000e+000 -4.460031e+000
      vertex   -1.761404e+000 0.000000e+000 -4.839417e+000
    endloop
  endfacet
  facet normal 0.000000e+000 -1.000000e+000 0.000000e+000
    outer loop
      vertex   1.761404e+000 0.000000e+000 -4.839417e+000
      vertex   -1.761404e+000 0.000000e+000 -4.839417e+000
      vertex   8.942881e-001 0.000000e+000 -5.071760e+000
    endloop
  endfacet
  facet normal 0.000000e+000 -1.000000e+000 0.000000e+000
    outer loop
      vertex   8.942881e-001 0.000000e+000 -5.071760e+000
      vertex   -1.761404e+000 0.000000e+000 -4.839417e+000
      vertex   -8.942881e-001 0.000000e+000 -5.071760e+000
    endloop
  endfacet
  facet normal -0.000000e+000 -1.000000e+000 0.000000e+000
    outer loop
      vertex   8.942881e-001 0.000000e+000 -5.071760e+000
      vertex   -8.942881e-001 0.000000e+000 -5.071760e+000
      vertex   3.153466e-016 0.000000e+000 -5.150000e+000
    endloop
  endfacet
endsolid
